REM DIRINDEX 1\5,1\2\6,1\2\7,1\3\8,1\3\9,1\4\10,1\4\11,1\4\12
REM DIRNAME cjc026,folder01,folder02,folder03,folder04,folder05,folder06,folder07,folder08,folder09,folder10,folder11
TITLE ""
FILE "EJE_DB3000_5th_6C_32.mp3" MP3
  TRACK 01 AUDIO
    TITLE "0:"
    INDEX 01 00:00:00
  TRACK 02 AUDIO
    TITLE "10:cjc026_11388"
    INDEX 01 00:00:08
  TRACK 03 AUDIO
    TITLE "0:"
    INDEX 01 00:01:33
  TRACK 04 AUDIO
    TITLE "11:cjc026_11389"
    INDEX 01 00:01:70
  TRACK 05 AUDIO
    TITLE "0:"
    INDEX 01 00:03:42
  TRACK 06 AUDIO
    TITLE "12:cjc026_11390"
    INDEX 01 00:04:02
  TRACK 07 AUDIO
    TITLE "0:"
    INDEX 01 00:05:27
  TRACK 08 AUDIO
    TITLE "10:cjc026_11391"
    INDEX 01 00:05:62
  TRACK 09 AUDIO
    TITLE "0:"
    INDEX 01 00:07:15
  TRACK 10 AUDIO
    TITLE "11:cjc026_11392"
    INDEX 01 00:07:52
  TRACK 11 AUDIO
    TITLE "0:"
    INDEX 01 00:09:32
  TRACK 12 AUDIO
    TITLE "12:cjc026_11393"
    INDEX 01 00:09:67
  TRACK 13 AUDIO
    TITLE "0:"
    INDEX 01 00:11:17
  TRACK 14 AUDIO
    TITLE "10:cjc026_11394"
    INDEX 01 00:11:55
  TRACK 15 AUDIO
    TITLE "0:"
    INDEX 01 00:13:10
  TRACK 16 AUDIO
    TITLE "11:cjc026_11395"
    INDEX 01 00:13:48
  TRACK 17 AUDIO
    TITLE "0:"
    INDEX 01 00:15:46
  TRACK 18 AUDIO
    TITLE "12:cjc026_11396"
    INDEX 01 00:16:06
  TRACK 19 AUDIO
    TITLE "0:"
    INDEX 01 00:17:37
  TRACK 20 AUDIO
    TITLE "10:cjc026_11397"
    INDEX 01 00:18:00
  TRACK 21 AUDIO
    TITLE "0:"
    INDEX 01 00:19:27
  TRACK 22 AUDIO
    TITLE "11:cjc026_11398"
    INDEX 01 00:19:68
  TRACK 23 AUDIO
    TITLE "0:"
    INDEX 01 00:22:40
  TRACK 24 AUDIO
    TITLE "12:cjc026_11399"
    INDEX 01 00:23:03
  TRACK 25 AUDIO
    TITLE "0:"
    INDEX 01 00:24:27
  TRACK 26 AUDIO
    TITLE "10:cjc026_11400"
    INDEX 01 00:24:71
  TRACK 27 AUDIO
    TITLE "0:"
    INDEX 01 00:26:21
  TRACK 28 AUDIO
    TITLE "11:cjc026_11401"
    INDEX 01 00:26:56
  TRACK 29 AUDIO
    TITLE "0:"
    INDEX 01 00:28:11
  TRACK 30 AUDIO
    TITLE "12:cjc026_11402"
    INDEX 01 00:28:49
  TRACK 31 AUDIO
    TITLE "0:"
    INDEX 01 00:30:01
  TRACK 32 AUDIO
    TITLE "10:cjc026_11403"
    INDEX 01 00:30:36
  TRACK 33 AUDIO
    TITLE "0:"
    INDEX 01 00:31:72
  TRACK 34 AUDIO
    TITLE "11:cjc026_11404"
    INDEX 01 00:32:30
  TRACK 35 AUDIO
    TITLE "0:"
    INDEX 01 00:34:04
  TRACK 36 AUDIO
    TITLE "12:cjc026_11405"
    INDEX 01 00:34:42
  TRACK 37 AUDIO
    TITLE "0:"
    INDEX 01 00:36:00
  TRACK 38 AUDIO
    TITLE "10:cjc026_11406"
    INDEX 01 00:36:35
  TRACK 39 AUDIO
    TITLE "0:"
    INDEX 01 00:37:59
  TRACK 40 AUDIO
    TITLE "11:cjc026_11407"
    INDEX 01 00:38:22
  TRACK 41 AUDIO
    TITLE "0:"
    INDEX 01 00:39:58
  TRACK 42 AUDIO
    TITLE "12:cjc026_11408"
    INDEX 01 00:40:18
  TRACK 43 AUDIO
    TITLE "0:"
    INDEX 01 00:41:43
  TRACK 44 AUDIO
    TITLE "10:cjc026_11409"
    INDEX 01 00:42:03
  TRACK 45 AUDIO
    TITLE "0:"
    INDEX 01 00:43:28
  TRACK 46 AUDIO
    TITLE "11:cjc026_11410"
    INDEX 01 00:43:71
  TRACK 47 AUDIO
    TITLE "0:"
    INDEX 01 00:45:16
  TRACK 48 AUDIO
    TITLE "12:cjc026_11411"
    INDEX 01 00:45:51
  TRACK 49 AUDIO
    TITLE "0:"
    INDEX 01 00:47:03
  TRACK 50 AUDIO
    TITLE "10:cjc026_11412"
    INDEX 01 00:47:41
  TRACK 51 AUDIO
    TITLE "0:"
    INDEX 01 00:48:74
  TRACK 52 AUDIO
    TITLE "11:cjc026_11413"
    INDEX 01 00:49:37
  TRACK 53 AUDIO
    TITLE "0:"
    INDEX 01 00:50:62
  TRACK 54 AUDIO
    TITLE "12:cjc026_11414"
    INDEX 01 00:51:22
  TRACK 55 AUDIO
    TITLE "0:"
    INDEX 01 00:52:55
  TRACK 56 AUDIO
    TITLE "10:cjc026_11415"
    INDEX 01 00:53:15
  TRACK 57 AUDIO
    TITLE "0:"
    INDEX 01 00:54:43
  TRACK 58 AUDIO
    TITLE "11:cjc026_11416"
    INDEX 01 00:55:03
  TRACK 59 AUDIO
    TITLE "0:"
    INDEX 01 00:56:39
  TRACK 60 AUDIO
    TITLE "12:cjc026_11417"
    INDEX 01 00:56:74
  TRACK 61 AUDIO
    TITLE "0:"
    INDEX 01 00:58:26
  TRACK 62 AUDIO
    TITLE "10:cjc026_11418"
    INDEX 01 00:58:64
  TRACK 63 AUDIO
    TITLE "0:"
    INDEX 01 01:00:14
  TRACK 64 AUDIO
    TITLE "11:cjc026_11419"
    INDEX 01 01:00:52
  TRACK 65 AUDIO
    TITLE "0:"
    INDEX 01 01:02:10
  TRACK 66 AUDIO
    TITLE "12:cjc026_11420"
    INDEX 01 01:02:48
  TRACK 67 AUDIO
    TITLE "0:"
    INDEX 01 01:03:72
  TRACK 68 AUDIO
    TITLE "10:cjc026_11421"
    INDEX 01 01:04:35
  TRACK 69 AUDIO
    TITLE "0:"
    INDEX 01 01:05:49
  TRACK 70 AUDIO
    TITLE "11:cjc026_11422"
    INDEX 01 01:06:12
  TRACK 71 AUDIO
    TITLE "0:"
    INDEX 01 01:07:37
  TRACK 72 AUDIO
    TITLE "12:cjc026_11423"
    INDEX 01 01:07:72
  TRACK 73 AUDIO
    TITLE "0:"
    INDEX 01 01:09:14
